<svg width="240" height="240" viewBox="0 0 240 240" fill="none" xmlns="http://www.w3.org/2000/svg">
<path id="Exclude" fill-rule="evenodd" clip-rule="evenodd" d="M240 120C240 53.7258 186.274 -2.89694e-06 120 0C53.7258 2.89694e-06 -2.89694e-06 53.7258 0 120C2.89694e-06 186.274 53.7258 240 120 240C186.274 240 240 186.274 240 120ZM99 94C104.523 94 109 89.5229 109 84C109 78.4772 104.523 74 99 74C93.4772 74 89 78.4772 89 84C89 89.5229 93.4772 94 99 94ZM109 156C109 161.523 104.523 166 99 166C93.4772 166 89 161.523 89 156C89 150.477 93.4772 146 99 146C104.523 146 109 150.477 109 156ZM128.448 174.67C124.156 176.099 120 172.69 120 168.167C120 164.878 122.261 162.057 125.357 160.946C144.583 154.043 157 137.507 157 119.778C157 102.049 144.583 85.5131 125.357 78.6103C122.261 77.4988 120 74.6781 120 71.3889C120 66.8656 124.156 63.4564 128.448 64.8857C153.296 73.1613 171 94.6156 171 119.778C171 144.94 153.296 166.395 128.448 174.67Z" fill="#69B060"/>
</svg>
