<svg width="current" height="current" viewBox="0 0 240 240" fill="none" xmlns="http://www.w3.org/2000/svg">
<path id="Exclude" fill-rule="evenodd" clip-rule="evenodd" d="M120 240C186.274 240 240 186.274 240 120C240 53.7258 186.274 0 120 0C53.7258 0 0 53.7258 0 120C0 186.274 53.7258 240 120 240ZM74 100C79.5229 100 84 95.5229 84 90C84 84.4771 79.5229 80 74 80C68.4771 80 64 84.4771 64 90C64 95.5229 68.4771 100 74 100ZM144 90C144 95.5229 139.523 100 134 100C128.477 100 124 95.5229 124 90C124 84.4771 128.477 80 134 80C139.523 80 144 84.4771 144 90ZM74 128H134V180H74V128ZM64 128C64 122.477 68.4771 118 74 118H134C139.523 118 144 122.477 144 128V180C144 185.523 139.523 190 134 190H74C68.4771 190 64 185.523 64 180V128Z" fill="current"/>
</svg>
