<svg width="current" height="current" viewBox="0 0 240 240" fill="none" xmlns="http://www.w3.org/2000/svg">
<path id="Exclude" fill-rule="evenodd" clip-rule="evenodd" d="M120 240C186.274 240 240 186.274 240 120C240 53.7258 186.274 0 120 0C53.7258 0 0 53.7258 0 120C0 186.274 53.7258 240 120 240ZM61.2 119.6C61.2 115.92 64.16 112.96 67.92 112.96C71.6 112.96 74.64 115.92 74.64 119.6C74.64 123.36 71.6 126.32 67.92 126.32C64.16 126.32 61.2 123.36 61.2 119.6ZM100.08 148.08C102.373 149.893 105.173 150.8 108.48 150.8C110.453 150.8 112.187 150.507 113.68 149.92C115.173 149.333 116.427 148.4 117.44 147.12C118.453 145.787 119.227 144.08 119.76 142H120.16C121.067 145.147 122.453 147.413 124.32 148.8C126.187 150.133 128.587 150.8 131.52 150.8C134.827 150.8 137.6 149.893 139.84 148.08C142.133 146.267 143.867 143.733 145.04 140.48C146.213 137.227 146.8 133.467 146.8 129.2C146.8 125.893 146.507 122.88 145.92 120.16C145.333 117.44 144.507 115.013 143.44 112.88C142.373 110.693 141.12 108.773 139.68 107.12H132.48C133.973 108.827 135.253 110.773 136.32 112.96C137.44 115.093 138.293 117.52 138.88 120.24C139.467 122.907 139.76 125.92 139.76 129.28C139.76 132.693 139.387 135.573 138.64 137.92C137.947 140.267 136.933 142.027 135.6 143.2C134.32 144.373 132.773 144.96 130.96 144.96C129.36 144.96 128 144.56 126.88 143.76C125.76 142.96 124.88 141.787 124.24 140.24C123.653 138.64 123.36 136.747 123.36 134.56V121.68H116.64V134.56C116.64 136.533 116.373 138.32 115.84 139.92C115.307 141.467 114.453 142.693 113.28 143.6C112.16 144.507 110.72 144.96 108.96 144.96C106.347 144.96 104.24 143.653 102.64 141.04C101.04 138.373 100.24 134.453 100.24 129.28C100.24 125.813 100.56 122.693 101.2 119.92C101.893 117.147 102.773 114.72 103.84 112.64C104.96 110.507 106.187 108.667 107.52 107.12H100.32C98.3467 109.413 96.6667 112.4 95.28 116.08C93.8933 119.76 93.2 124.133 93.2 129.2C93.2 133.467 93.7867 137.227 94.96 140.48C96.1333 143.733 97.84 146.267 100.08 148.08ZM165.106 119.6C165.106 115.92 168.066 112.96 171.826 112.96C175.506 112.96 178.546 115.92 178.546 119.6C178.546 123.36 175.506 126.32 171.826 126.32C168.066 126.32 165.106 123.36 165.106 119.6Z" fill="current"/>
</svg>
