<svg width="240" height="240" viewBox="0 0 240 240" fill="none" xmlns="http://www.w3.org/2000/svg">
<path id="Exclude" fill-rule="evenodd" clip-rule="evenodd" d="M240 120C240 186.274 186.274 240 120 240C53.7258 240 0 186.274 0 120C0 53.7258 53.7258 0 120 0C186.274 0 240 53.7258 240 120ZM63.384 175.651C62.2093 178.151 63.0831 181.471 65.3356 183.069C67.5881 184.666 70.3664 183.935 71.5411 181.436L86.8281 148.913L102.269 181.763C103.444 184.262 106.222 184.993 108.474 183.396C110.727 181.798 111.601 178.477 110.426 175.978L92.2662 137.344L107.834 104.223C109.009 101.724 108.135 98.4033 105.883 96.8059C103.63 95.2085 100.852 95.9395 99.6771 98.4386L86.8281 125.774L74.1329 98.7654C72.9582 96.2663 70.1799 95.5353 67.9274 97.1327C65.6749 98.7301 64.8011 102.051 65.9758 104.55L81.3901 137.344L63.384 175.651ZM165 139C165 157.198 149.731 174.133 127 178.13V99.8698C149.731 103.867 165 120.802 165 139ZM117 181C117 185.418 120.598 189.051 124.985 188.53C153.239 185.176 175 164.279 175 139C175 113.721 153.239 92.824 124.985 89.47C120.598 88.9492 117 92.5817 117 97V181Z" fill="#8BAAF8"/>
</svg>
