<svg width="current" height="current" viewBox="0 0 240 240" fill="none" xmlns="http://www.w3.org/2000/svg">
<path id="Exclude" fill-rule="evenodd" clip-rule="evenodd" d="M120 240C186.274 240 240 186.274 240 120C240 53.7258 186.274 0 120 0C53.7258 0 0 53.7258 0 120C0 186.274 53.7258 240 120 240ZM29.72 138.7L31.88 140.92L52.28 120.52L50.06 118.36L29.72 138.7ZM59.72 138.7L61.88 140.92L82.28 120.52L80.06 118.36L59.72 138.7ZM89.54 119.74H97.04V112.24H89.54V119.74ZM134.07 126.64C134.75 124.6 135.09 122.34 135.09 119.86H129.51C129.51 122.38 129.15 124.56 128.43 126.4C127.75 128.24 126.67 129.66 125.19 130.66C123.75 131.66 121.89 132.16 119.61 132.16C117.37 132.16 115.51 131.66 114.03 130.66C112.55 129.66 111.45 128.24 110.73 126.4C110.05 124.56 109.71 122.38 109.71 119.86H104.13C104.13 122.34 104.45 124.6 105.09 126.64C105.73 128.64 106.69 130.38 107.97 131.86C109.25 133.3 110.85 134.42 112.77 135.22C114.73 136.02 117.01 136.42 119.61 136.42C122.13 136.42 124.35 136.04 126.27 135.28C128.19 134.48 129.81 133.36 131.13 131.92C132.45 130.44 133.43 128.68 134.07 126.64ZM142.157 119.74H149.657V112.24H142.157V119.74ZM156.927 138.7L159.087 140.92L179.487 120.52L177.267 118.36L156.927 138.7ZM186.927 138.7L189.087 140.92L209.487 120.52L207.267 118.36L186.927 138.7Z" fill="current"/>
</svg>
