<svg width="current" height="current" viewBox="0 0 240 240" fill="none" xmlns="http://www.w3.org/2000/svg">
<path id="Exclude" fill-rule="evenodd" clip-rule="evenodd" d="M120 240C186.274 240 240 186.274 240 120C240 53.7258 186.274 0 120 0C53.7258 0 0 53.7258 0 120C0 186.274 53.7258 240 120 240ZM82.308 142.348L117.084 128.488V121.684L82.308 107.572V116.812L104.148 125.212L82.308 133.444V142.348ZM137.907 142.6V141.004H128.499C128.499 144.98 128.387 148.452 128.163 151.42C127.939 154.388 127.519 157.048 126.903 159.4C126.287 161.808 125.363 164.16 124.131 166.456L130.179 169.732C133.203 164.916 135.247 160.352 136.311 156.04C137.375 151.784 137.907 147.304 137.907 142.6ZM182.945 143.104C184.457 140.36 185.213 137.28 185.213 133.864V132.184C185.213 128.656 184.541 125.548 183.197 122.86C181.853 120.172 179.949 118.072 177.485 116.56C175.021 115.048 172.109 114.292 168.749 114.292C166.677 114.292 164.577 114.712 162.449 115.552C160.377 116.392 158.361 117.68 156.401 119.416V116.392C156.401 111.24 157.465 107.628 159.593 105.556C161.777 103.428 164.633 102.364 168.161 102.364C169.785 102.364 171.549 102.616 173.453 103.12C175.357 103.568 177.569 104.38 180.089 105.556L183.701 96.904C180.621 95.448 177.793 94.44 175.217 93.88C172.697 93.32 170.261 93.04 167.909 93.04C161.189 93.04 155.981 94.972 152.285 98.836C148.589 102.7 146.741 108.552 146.741 116.392V128.236C146.741 135.572 148.477 141.34 151.949 145.54C155.421 149.74 160.265 151.84 166.481 151.84C170.401 151.84 173.733 151.056 176.477 149.488C179.277 147.92 181.433 145.792 182.945 143.104ZM159.089 138.988C157.297 136.636 156.401 133.052 156.401 128.236V127.9C159.649 124.876 163.261 123.364 167.237 123.364C169.869 123.364 171.885 124.176 173.285 125.8C174.685 127.424 175.385 129.552 175.385 132.184V133.864C175.385 136.44 174.629 138.54 173.117 140.164C171.605 141.732 169.449 142.516 166.649 142.516C163.401 142.516 160.881 141.34 159.089 138.988Z" fill="current"/>
</svg>
