<svg width="current" height="current" viewBox="0 0 239 240" fill="none" xmlns="http://www.w3.org/2000/svg">
<path id="Exclude" fill-rule="evenodd" clip-rule="evenodd" d="M119.5 240C185.498 240 239 186.274 239 120C239 53.7258 185.498 0 119.5 0C53.502 0 0 53.7258 0 120C0 186.274 53.502 240 119.5 240ZM76.5 109.2H88.6V97.3H76.5V109.2ZM88.1 138V136.1H76.9C76.9 140.833 76.7667 144.967 76.5 148.5C76.2333 152.033 75.7333 155.2 75 158C74.2667 160.867 73.1667 163.667 71.7 166.4L78.9 170.3C82.5 164.567 84.9333 159.133 86.2 154C87.4667 148.933 88.1 143.6 88.1 138ZM98.0938 111.5V121.5H128.494V111.5H98.0938ZM156.823 142.5C160.223 135.233 161.923 127.733 161.923 120V116.3C161.923 108.567 160.223 101.067 156.823 93.8C153.49 86.5333 148.423 79.6 141.623 73L133.623 80.5C139.357 86.3 143.523 92.1 146.123 97.9C148.79 103.633 150.123 109.767 150.123 116.3V120C150.123 126.467 148.79 132.6 146.123 138.4C143.523 144.2 139.357 150 133.623 155.8L141.623 163.3C148.423 156.7 153.49 149.767 156.823 142.5Z" fill="current"/>
</svg>
