<svg width="240" height="240" viewBox="0 0 240 240" fill="none" xmlns="http://www.w3.org/2000/svg">
<path id="Exclude" fill-rule="evenodd" clip-rule="evenodd" d="M240 120C240 186.274 186.274 240 120 240C53.7258 240 0 186.274 0 120C0 53.7258 53.7258 0 120 0C186.274 0 240 53.7258 240 120ZM57.04 95.8V86.6H97.04V95.8H81.84V141H72.24V95.8H57.04ZM115.165 95.8V86.6H155.165V95.8H139.965V141H130.365V95.8H115.165ZM74 156C71.2386 156 69 158.239 69 161C69 163.761 71.2386 166 74 166H139C141.761 166 144 163.761 144 161C144 158.239 141.761 156 139 156H74Z" fill="#FBA25B"/>
</svg>
